<svg xmlns="http://www.w3.org/2000/svg" width="2060" height="1362"><rect width="100%" height="100%" fill="#f5f8fc"/><rect x="24" y="18" width="2012" height="124" rx="18" fill="#ffffff" stroke="#d9e4ef"/><text x="54" y="70" font-size="46" font-family="Helvetica" font-weight="700" fill="#16324a">Student Weekly Overview</text><text x="54" y="112" font-size="26" font-family="Helvetica" fill="#4f667d">Data Period: Monday, July 13, 2026 - Sunday, July 19, 2026</text><rect x="24" y="170" width="2012" height="48" rx="10" fill="#245f8f"/><text x="60" y="201" font-size="25" font-family="Helvetica" font-weight="700" fill="#ffffff">Teacher</text><text x="620" y="201" font-size="25" font-family="Helvetica" font-weight="700" fill="#ffffff">Attendance</text><text x="980" y="201" font-size="25" font-family="Helvetica" font-weight="700" fill="#ffffff">Preview</text><text x="1330" y="201" font-size="25" font-family="Helvetica" font-weight="700" fill="#ffffff">Homework</text><text x="1680" y="201" font-size="25" font-family="Helvetica" font-weight="700" fill="#ffffff">Renewal</text><rect x="24" y="218" width="2012" height="48" fill="#ffffff" stroke="#e3ebf3"/><text x="60" y="249" font-size="23" font-family="Helvetica" fill="#18354d">Irish</text><rect x="612" y="224" width="300" height="36" rx="9" fill="#dff5e1"/><text x="870" y="247" font-size="15" font-family="Helvetica" fill="#6b4a2b" text-anchor="end">Top 1</text><text x="630" y="249" font-size="23" font-family="Helvetica" fill="#18354d">96.88%</text><text x="990" y="249" font-size="23" font-family="Helvetica" fill="#18354d">83.87%</text><text x="1340" y="249" font-size="23" font-family="Helvetica" fill="#18354d">58.06%</text><text x="1690" y="249" font-size="23" font-family="Helvetica" fill="#18354d">-</text><rect x="24" y="266" width="2012" height="48" fill="#ffffff" stroke="#e3ebf3"/><text x="60" y="297" font-size="23" font-family="Helvetica" fill="#18354d">Rovie</text><rect x="612" y="272" width="300" height="36" rx="9" fill="#dff5e1"/><text x="870" y="295" font-size="15" font-family="Helvetica" fill="#6b4a2b" text-anchor="end">Top 2</text><text x="630" y="297" font-size="23" font-family="Helvetica" fill="#18354d">91.18%</text><text x="990" y="297" font-size="23" font-family="Helvetica" fill="#18354d">86.02%</text><text x="1340" y="297" font-size="23" font-family="Helvetica" fill="#18354d">69.89%</text><text x="1690" y="297" font-size="23" font-family="Helvetica" fill="#18354d">-</text><rect x="24" y="314" width="2012" height="48" fill="#ffffff" stroke="#e3ebf3"/><text x="60" y="345" font-size="23" font-family="Helvetica" fill="#18354d">Rachlin</text><rect x="612" y="320" width="300" height="36" rx="9" fill="#dff5e1"/><text x="870" y="343" font-size="15" font-family="Helvetica" fill="#6b4a2b" text-anchor="end">Top 3</text><text x="630" y="345" font-size="23" font-family="Helvetica" fill="#18354d">89.66%</text><text x="990" y="345" font-size="23" font-family="Helvetica" fill="#18354d">76.92%</text><text x="1340" y="345" font-size="23" font-family="Helvetica" fill="#18354d">56.73%</text><text x="1690" y="345" font-size="23" font-family="Helvetica" fill="#18354d">-</text><rect x="24" y="362" width="2012" height="48" fill="#ffffff" stroke="#e3ebf3"/><text x="60" y="393" font-size="23" font-family="Helvetica" fill="#18354d">Antheia</text><text x="630" y="393" font-size="23" font-family="Helvetica" fill="#18354d">89.21%</text><text x="990" y="393" font-size="23" font-family="Helvetica" fill="#18354d">87.90%</text><text x="1340" y="393" font-size="23" font-family="Helvetica" fill="#18354d">61.29%</text><text x="1690" y="393" font-size="23" font-family="Helvetica" fill="#18354d">-</text><rect x="24" y="410" width="2012" height="48" fill="#ffffff" stroke="#e3ebf3"/><text x="60" y="441" font-size="23" font-family="Helvetica" fill="#18354d">Jannie</text><text x="630" y="441" font-size="23" font-family="Helvetica" fill="#18354d">88.75%</text><text x="990" y="441" font-size="23" font-family="Helvetica" fill="#18354d">81.69%</text><text x="1340" y="441" font-size="23" font-family="Helvetica" fill="#18354d">66.20%</text><text x="1690" y="441" font-size="23" font-family="Helvetica" fill="#18354d">-</text><rect x="24" y="458" width="2012" height="48" fill="#ffffff" stroke="#e3ebf3"/><text x="60" y="489" font-size="23" font-family="Helvetica" fill="#18354d">Myreen</text><text x="630" y="489" font-size="23" font-family="Helvetica" fill="#18354d">88.73%</text><text x="990" y="489" font-size="23" font-family="Helvetica" fill="#18354d">82.54%</text><text x="1340" y="489" font-size="23" font-family="Helvetica" fill="#18354d">66.67%</text><text x="1690" y="489" font-size="23" font-family="Helvetica" fill="#18354d">-</text><rect x="24" y="506" width="2012" height="48" fill="#ffffff" stroke="#e3ebf3"/><text x="60" y="537" font-size="23" font-family="Helvetica" fill="#18354d">Ariana</text><text x="630" y="537" font-size="23" font-family="Helvetica" fill="#18354d">88.24%</text><text x="990" y="537" font-size="23" font-family="Helvetica" fill="#18354d">77.33%</text><text x="1340" y="537" font-size="23" font-family="Helvetica" fill="#18354d">64.00%</text><text x="1690" y="537" font-size="23" font-family="Helvetica" fill="#18354d">-</text><rect x="24" y="554" width="2012" height="48" fill="#ffffff" stroke="#e3ebf3"/><text x="60" y="585" font-size="23" font-family="Helvetica" fill="#18354d">Daze</text><text x="630" y="585" font-size="23" font-family="Helvetica" fill="#18354d">88.14%</text><rect x="972" y="560" width="300" height="36" rx="9" fill="#dfefff"/><text x="1230" y="583" font-size="15" font-family="Helvetica" fill="#6b4a2b" text-anchor="end">Top 2</text><text x="990" y="585" font-size="23" font-family="Helvetica" fill="#18354d">92.31%</text><text x="1340" y="585" font-size="23" font-family="Helvetica" fill="#18354d">61.54%</text><text x="1690" y="585" font-size="23" font-family="Helvetica" fill="#18354d">-</text><rect x="24" y="602" width="2012" height="48" fill="#ffffff" stroke="#e3ebf3"/><text x="60" y="633" font-size="23" font-family="Helvetica" fill="#18354d">Ivy</text><text x="630" y="633" font-size="23" font-family="Helvetica" fill="#18354d">87.72%</text><text x="990" y="633" font-size="23" font-family="Helvetica" fill="#18354d">87.00%</text><text x="1340" y="633" font-size="23" font-family="Helvetica" fill="#18354d">61.00%</text><text x="1690" y="633" font-size="23" font-family="Helvetica" fill="#18354d">-</text><rect x="24" y="650" width="2012" height="48" fill="#ffffff" stroke="#e3ebf3"/><text x="60" y="681" font-size="23" font-family="Helvetica" fill="#18354d">Jonery</text><text x="630" y="681" font-size="23" font-family="Helvetica" fill="#18354d">87.50%</text><rect x="972" y="656" width="300" height="36" rx="9" fill="#dfefff"/><text x="1230" y="679" font-size="15" font-family="Helvetica" fill="#6b4a2b" text-anchor="end">Top 1</text><text x="990" y="681" font-size="23" font-family="Helvetica" fill="#18354d">94.81%</text><text x="1340" y="681" font-size="23" font-family="Helvetica" fill="#18354d">71.43%</text><text x="1690" y="681" font-size="23" font-family="Helvetica" fill="#18354d">-</text><rect x="24" y="698" width="2012" height="48" fill="#ffffff" stroke="#e3ebf3"/><text x="60" y="729" font-size="23" font-family="Helvetica" fill="#18354d">Ziah</text><text x="630" y="729" font-size="23" font-family="Helvetica" fill="#18354d">87.12%</text><text x="990" y="729" font-size="23" font-family="Helvetica" fill="#18354d">82.39%</text><text x="1340" y="729" font-size="23" font-family="Helvetica" fill="#18354d">61.97%</text><text x="1690" y="729" font-size="23" font-family="Helvetica" fill="#18354d">-</text><rect x="24" y="746" width="2012" height="48" fill="#ffffff" stroke="#e3ebf3"/><text x="60" y="777" font-size="23" font-family="Helvetica" fill="#18354d">Shine</text><text x="630" y="777" font-size="23" font-family="Helvetica" fill="#18354d">86.92%</text><text x="990" y="777" font-size="23" font-family="Helvetica" fill="#18354d">75.22%</text><rect x="1322" y="752" width="300" height="36" rx="9" fill="#ffe9d6"/><text x="1580" y="775" font-size="15" font-family="Helvetica" fill="#6b4a2b" text-anchor="end">Top 3</text><text x="1340" y="777" font-size="23" font-family="Helvetica" fill="#18354d">73.45%</text><text x="1690" y="777" font-size="23" font-family="Helvetica" fill="#18354d">-</text><rect x="24" y="794" width="2012" height="48" fill="#ffffff" stroke="#e3ebf3"/><text x="60" y="825" font-size="23" font-family="Helvetica" fill="#18354d">Eliza</text><text x="630" y="825" font-size="23" font-family="Helvetica" fill="#18354d">86.87%</text><text x="990" y="825" font-size="23" font-family="Helvetica" fill="#18354d">82.56%</text><text x="1340" y="825" font-size="23" font-family="Helvetica" fill="#18354d">54.65%</text><text x="1690" y="825" font-size="23" font-family="Helvetica" fill="#18354d">-</text><rect x="24" y="842" width="2012" height="48" fill="#ffffff" stroke="#e3ebf3"/><text x="60" y="873" font-size="23" font-family="Helvetica" fill="#18354d">Alaine</text><text x="630" y="873" font-size="23" font-family="Helvetica" fill="#18354d">85.11%</text><text x="990" y="873" font-size="23" font-family="Helvetica" fill="#18354d">85.00%</text><text x="1340" y="873" font-size="23" font-family="Helvetica" fill="#18354d">66.25%</text><text x="1690" y="873" font-size="23" font-family="Helvetica" fill="#18354d">-</text><rect x="24" y="890" width="2012" height="48" fill="#ffffff" stroke="#e3ebf3"/><text x="60" y="921" font-size="23" font-family="Helvetica" fill="#18354d">Patrice</text><text x="630" y="921" font-size="23" font-family="Helvetica" fill="#18354d">84.62%</text><text x="990" y="921" font-size="23" font-family="Helvetica" fill="#18354d">79.55%</text><text x="1340" y="921" font-size="23" font-family="Helvetica" fill="#18354d">64.77%</text><text x="1690" y="921" font-size="23" font-family="Helvetica" fill="#18354d">-</text><rect x="24" y="938" width="2012" height="48" fill="#ffffff" stroke="#e3ebf3"/><text x="60" y="969" font-size="23" font-family="Helvetica" fill="#18354d">Precious</text><text x="630" y="969" font-size="23" font-family="Helvetica" fill="#18354d">83.54%</text><rect x="972" y="944" width="300" height="36" rx="9" fill="#dfefff"/><text x="1230" y="967" font-size="15" font-family="Helvetica" fill="#6b4a2b" text-anchor="end">Top 3</text><text x="990" y="969" font-size="23" font-family="Helvetica" fill="#18354d">89.39%</text><rect x="1322" y="944" width="300" height="36" rx="9" fill="#ffe9d6"/><text x="1580" y="967" font-size="15" font-family="Helvetica" fill="#6b4a2b" text-anchor="end">Top 2</text><text x="1340" y="969" font-size="23" font-family="Helvetica" fill="#18354d">74.24%</text><text x="1690" y="969" font-size="23" font-family="Helvetica" fill="#18354d">-</text><rect x="24" y="986" width="2012" height="48" fill="#ffffff" stroke="#e3ebf3"/><text x="60" y="1017" font-size="23" font-family="Helvetica" fill="#18354d">Skye</text><text x="630" y="1017" font-size="23" font-family="Helvetica" fill="#18354d">83.51%</text><text x="990" y="1017" font-size="23" font-family="Helvetica" fill="#18354d">83.95%</text><rect x="1322" y="992" width="300" height="36" rx="9" fill="#ffe9d6"/><text x="1580" y="1015" font-size="15" font-family="Helvetica" fill="#6b4a2b" text-anchor="end">Top 1</text><text x="1340" y="1017" font-size="23" font-family="Helvetica" fill="#18354d">76.54%</text><text x="1690" y="1017" font-size="23" font-family="Helvetica" fill="#18354d">-</text><rect x="24" y="1034" width="2012" height="48" fill="#ffffff" stroke="#e3ebf3"/><text x="60" y="1065" font-size="23" font-family="Helvetica" fill="#18354d">Thomas</text><text x="630" y="1065" font-size="23" font-family="Helvetica" fill="#18354d">82.93%</text><text x="990" y="1065" font-size="23" font-family="Helvetica" fill="#18354d">73.53%</text><text x="1340" y="1065" font-size="23" font-family="Helvetica" fill="#18354d">44.12%</text><text x="1690" y="1065" font-size="23" font-family="Helvetica" fill="#18354d">-</text><rect x="24" y="1082" width="2012" height="48" fill="#ffffff" stroke="#e3ebf3"/><text x="60" y="1113" font-size="23" font-family="Helvetica" fill="#18354d">Esme</text><text x="630" y="1113" font-size="23" font-family="Helvetica" fill="#18354d">82.18%</text><text x="990" y="1113" font-size="23" font-family="Helvetica" fill="#18354d">80.72%</text><text x="1340" y="1113" font-size="23" font-family="Helvetica" fill="#18354d">49.40%</text><text x="1690" y="1113" font-size="23" font-family="Helvetica" fill="#18354d">-</text><rect x="24" y="1130" width="2012" height="48" fill="#ffffff" stroke="#e3ebf3"/><text x="60" y="1161" font-size="23" font-family="Helvetica" fill="#18354d">Ellie</text><text x="630" y="1161" font-size="23" font-family="Helvetica" fill="#18354d">82.11%</text><text x="990" y="1161" font-size="23" font-family="Helvetica" fill="#18354d">82.05%</text><text x="1340" y="1161" font-size="23" font-family="Helvetica" fill="#18354d">61.54%</text><text x="1690" y="1161" font-size="23" font-family="Helvetica" fill="#18354d">-</text><rect x="24" y="1178" width="2012" height="48" fill="#ffffff" stroke="#e3ebf3"/><text x="60" y="1209" font-size="23" font-family="Helvetica" fill="#18354d">Tess Kervin</text><text x="630" y="1209" font-size="23" font-family="Helvetica" fill="#18354d">81.65%</text><text x="990" y="1209" font-size="23" font-family="Helvetica" fill="#18354d">78.65%</text><text x="1340" y="1209" font-size="23" font-family="Helvetica" fill="#18354d">53.93%</text><text x="1690" y="1209" font-size="23" font-family="Helvetica" fill="#18354d">-</text><rect x="24" y="1226" width="2012" height="48" fill="#ffffff" stroke="#e3ebf3"/><text x="60" y="1257" font-size="23" font-family="Helvetica" fill="#18354d">Kay</text><text x="630" y="1257" font-size="23" font-family="Helvetica" fill="#18354d">80.39%</text><text x="990" y="1257" font-size="23" font-family="Helvetica" fill="#18354d">78.05%</text><text x="1340" y="1257" font-size="23" font-family="Helvetica" fill="#18354d">65.85%</text><text x="1690" y="1257" font-size="23" font-family="Helvetica" fill="#18354d">-</text><rect x="24" y="1274" width="2012" height="48" fill="#ffffff" stroke="#e3ebf3"/><text x="60" y="1305" font-size="23" font-family="Helvetica" fill="#18354d">Selene</text><text x="630" y="1305" font-size="23" font-family="Helvetica" fill="#18354d">79.09%</text><text x="990" y="1305" font-size="23" font-family="Helvetica" fill="#18354d">82.76%</text><text x="1340" y="1305" font-size="23" font-family="Helvetica" fill="#18354d">64.37%</text><text x="1690" y="1305" font-size="23" font-family="Helvetica" fill="#18354d">-</text></svg>